<svg xmlns="http://www.w3.org/2000/svg" xmlns:xlink="http://www.w3.org/1999/xlink" fill="none" version="1.1" width="20.1018009185791" height="21.41900062561035" viewBox="0 0 20.1018009185791 21.41900062561035"><g><path d="M10.5534,21.419C10.5534,21.419,9.0458,19.8891,9.0458,19.8891C9.0458,19.8891,10.5534,18.3592,10.5534,18.3592C10.5534,18.3592,12.0611,19.8891,12.0611,19.8891C12.0611,19.8891,10.5534,21.419,10.5534,21.419C10.5534,21.419,10.5534,21.419,10.5534,21.419ZM7.08588,19.8891C7.08588,19.8891,6.03053,18.8181,6.03053,18.8181C6.03053,18.8181,8.99555,15.8093,8.99555,15.8093C8.99555,15.8093,10.0509,16.8802,10.0509,16.8802C10.0509,16.8802,7.08588,19.8891,7.08588,19.8891C7.08588,19.8891,7.08588,19.8891,7.08588,19.8891ZM13.5687,18.3592C13.5687,18.3592,12.0611,16.8292,12.0611,16.8292C12.0611,16.8292,13.5687,15.2993,13.5687,15.2993C13.5687,15.2993,15.0763,16.8292,15.0763,16.8292C15.0763,16.8292,13.5687,18.3592,13.5687,18.3592C13.5687,18.3592,13.5687,18.3592,13.5687,18.3592ZM4.5229,18.3592C4.5229,18.3592,3.01527,16.8292,3.01527,16.8292C3.01527,16.8292,4.5229,15.2993,4.5229,15.2993C4.5229,15.2993,6.03053,16.8292,6.03053,16.8292C6.03053,16.8292,4.5229,18.3592,4.5229,18.3592C4.5229,18.3592,4.5229,18.3592,4.5229,18.3592ZM5.52799,14.2793C4.00361,14.2793,2.70101,13.7309,1.6202,12.6342C0.539398,11.5374,-0.000669437,10.2159,6.22733e-7,8.6696C6.22733e-7,7.25867,0.460666,6.02622,1.382,4.97227C2.30333,3.91832,3.44243,3.29785,4.7993,3.11086C5.33535,2.1419,6.06839,1.38102,6.99844,0.828203C7.92848,0.275389,8.94596,-0.000678716,10.0509,0.00000125301C11.5585,0.00000125301,12.8695,0.488899,13.9838,1.46669C15.0981,2.44449,15.7722,3.66401,16.006,5.12527C17.1619,5.22726,18.1335,5.71174,18.9208,6.5787C19.7081,7.44566,20.1018,8.48261,20.1018,9.68955C20.1018,10.9645,19.6622,12.0484,18.7831,12.9412C17.904,13.834,16.8359,14.28,15.5789,14.2793C15.5789,14.2793,5.52799,14.2793,5.52799,14.2793C5.52799,14.2793,5.52799,14.2793,5.52799,14.2793Z" fill="#FFFFFF" fill-opacity="1"/></g></svg>